<svg width="27" height="27" viewBox="0 0 27 27" fill="none" xmlns="http://www.w3.org/2000/svg">
<path d="M9.76931 27C5.75089 26.9768 2.42694 18.7739 2.42694 14.5963C2.42694 7.7723 7.54613 6.27833 9.51903 6.27833C10.4081 6.27833 11.3575 6.62748 12.1949 6.93646C12.7804 7.15198 13.386 7.37447 13.7229 7.37447C13.9245 7.37447 14.3995 7.1852 14.819 7.01914C15.7135 6.66303 16.8266 6.22043 18.1229 6.22043C18.1252 6.22043 18.1283 6.22043 18.1306 6.22043C19.0984 6.22043 22.0331 6.43284 23.7974 9.08243L24.2107 9.70348L23.6159 10.1523C22.7662 10.7934 21.2158 11.963 21.2158 14.2797C21.2158 17.0235 22.9717 18.0787 23.8152 18.5862C24.1876 18.8102 24.573 19.0412 24.573 19.5464C24.573 19.8763 21.9404 26.9591 18.1174 26.9591C17.182 26.9591 16.5207 26.6779 15.9375 26.4299C15.3473 26.1789 14.8382 25.9626 13.997 25.9626C13.5706 25.9626 13.0314 26.1642 12.4606 26.3782C11.6805 26.6693 10.7975 27 9.79557 27H9.76931Z" fill="black"/>
<path d="M18.5278 0C18.6274 3.58995 16.06 6.08048 13.4957 5.92429C13.0731 3.05938 16.0597 0 18.5278 0Z" fill="black"/>
</svg>
