<svg width="30" height="33" viewBox="0 0 30 33" fill="none" xmlns="http://www.w3.org/2000/svg">
<path d="M2.10425 20.3388L4.56564 17.8981L15.6415 6.91603C17.6828 4.90712 20.9778 4.91318 23.0114 6.92967C25.0451 8.94616 25.0512 12.2134 23.0252 14.2375L11.9498 25.2228C11.4968 25.6723 10.7621 25.6723 10.3088 25.2228C9.85582 24.7734 9.85582 24.0451 10.3088 23.5957L21.3842 12.6103C22.5169 11.4871 22.5169 9.66641 21.3842 8.54322C20.2515 7.42003 18.4153 7.42003 17.2825 8.54322L6.20385 19.5253L3.74246 21.9657C1.70323 23.9885 1.70399 27.2674 3.74373 29.2892C5.78373 31.311 9.09021 31.3105 11.1294 29.2877L13.1801 27.2535L24.666 15.8644L25.4866 15.051C28.3549 12.1179 28.3184 7.44529 25.4051 4.55622C22.4914 1.66739 17.7791 1.63127 14.8212 4.47537L2.51495 16.6782C2.2217 16.9687 1.79444 17.0821 1.39419 16.9757C0.993677 16.8694 0.680811 16.5594 0.573551 16.1623C0.46629 15.7651 0.58094 15.3417 0.873932 15.051L13.1801 2.84844C17.0341 -0.95566 23.2662 -0.948587 27.1113 2.86435C30.9566 6.67704 30.9638 12.8566 27.1274 16.6782L14.8212 28.8807L12.7674 30.9148C9.80563 33.7357 5.11188 33.6887 2.20845 30.8087C-0.695234 27.929 -0.74135 23.2748 2.10425 20.3388Z" fill="#999999"/>
</svg>
