<svg width="27" height="29" viewBox="0 0 27 29" fill="none" xmlns="http://www.w3.org/2000/svg">
<g clip-path="url(#clip0)">
<path d="M13.5 0.584137C6.04125 0.584137 0 6.7526 0 14.3604C0 20.4482 3.86775 25.6108 9.23063 27.431C9.90563 27.5606 10.1531 27.1342 10.1531 26.7686C10.1531 26.4414 10.1419 25.5746 10.1363 24.4262C6.381 25.2568 5.589 22.578 5.589 22.578C4.97475 20.988 4.08712 20.5627 4.08712 20.5627C2.86425 19.7087 4.18162 19.7262 4.18162 19.7262C5.53725 19.822 6.24937 21.1457 6.24937 21.1457C7.45312 23.2521 9.4095 22.6434 10.1813 22.2917C10.3028 21.4004 10.6504 20.794 11.0363 20.4494C8.03813 20.1047 4.887 18.9201 4.887 13.6419C4.887 12.1383 5.41012 10.9093 6.27637 9.94548C6.1245 9.59733 5.66888 8.19658 6.3945 6.29931C6.3945 6.29931 7.52513 5.93014 10.107 7.71175C11.187 7.40566 12.3345 7.25379 13.482 7.24678C14.6295 7.25379 15.777 7.40566 16.857 7.71175C19.422 5.93014 20.5526 6.29931 20.5526 6.29931C21.2782 8.19658 20.8226 9.59733 20.6876 9.94548C21.5483 10.9093 22.0714 12.1383 22.0714 13.6419C22.0714 18.9341 18.9158 20.0989 15.912 20.4377C16.3845 20.8513 16.8232 21.6959 16.8232 22.9869C16.8232 24.8304 16.8064 26.3118 16.8064 26.7592C16.8064 27.1202 17.0426 27.5513 17.7345 27.4134C23.1356 25.605 27 20.4389 27 14.3604C27 6.7526 20.9554 0.584137 13.5 0.584137Z" fill="black"/>
</g>
<defs>
<clipPath id="clip0">
<rect width="27" height="28.0385" fill="white"/>
</clipPath>
</defs>
</svg>
