<svg width="24" height="24" viewBox="0 0 24 24" fill="none" xmlns="http://www.w3.org/2000/svg">
<path d="M22.425 10.959C22.4243 10.9585 22.4237 10.9578 22.4232 10.9572L13.041 1.57539C12.6411 1.1753 12.1094 0.955078 11.5439 0.955078C10.9783 0.955078 10.4466 1.1753 10.0465 1.57539L0.66923 10.9525C0.666071 10.9557 0.662737 10.959 0.659754 10.9621C-0.161476 11.7881 -0.160072 13.1282 0.66379 13.9521C1.04019 14.3287 1.53714 14.5466 2.06865 14.5696C2.09041 14.5717 2.11217 14.5727 2.13411 14.5727H2.50787V21.477C2.50787 22.8435 3.61969 23.9551 4.98612 23.9551H8.65674C9.02893 23.9551 9.33057 23.6533 9.33057 23.2813V17.8682C9.33057 17.2447 9.83787 16.7376 10.4613 16.7376H12.6264C13.2498 16.7376 13.757 17.2447 13.757 17.8682V23.2813C13.757 23.6533 14.0586 23.9551 14.4308 23.9551H18.1014C19.468 23.9551 20.5797 22.8435 20.5797 21.477V14.5727H20.9264C21.4918 14.5727 22.0235 14.3525 22.4237 13.9523C23.2485 13.1272 23.2488 11.7846 22.425 10.959ZM21.4707 12.9994C21.3253 13.1449 21.1319 13.2251 20.9264 13.2251H19.9058C19.5336 13.2251 19.232 13.5267 19.232 13.8989V21.477C19.232 22.1003 18.7249 22.6075 18.1014 22.6075H15.1046V17.8682C15.1046 16.5018 13.993 15.3899 12.6264 15.3899H10.4613C9.09473 15.3899 7.98291 16.5018 7.98291 17.8682V22.6075H4.98612C4.36283 22.6075 3.85553 22.1003 3.85553 21.477V13.8989C3.85553 13.5267 3.55389 13.2251 3.1817 13.2251H2.17868C2.16815 13.2244 2.1578 13.2239 2.14709 13.2237C1.94635 13.2202 1.75806 13.1405 1.61698 12.9993C1.31691 12.6992 1.31691 12.2108 1.61698 11.9106C1.6168 11.9108 1.61715 11.9106 1.61698 11.9106L1.61786 11.9097L10.9997 2.52822C11.145 2.38275 11.3382 2.30274 11.5439 2.30274C11.7493 2.30274 11.9425 2.38275 12.088 2.52822L21.4677 11.9078C21.4692 11.9092 21.4707 11.9106 21.4721 11.912C21.7706 12.2126 21.7701 12.6999 21.4707 12.9994Z" fill="#60A0CF"/>
</svg>
