<svg width="18" height="18" viewBox="0 0 18 18" fill="none" xmlns="http://www.w3.org/2000/svg">
<path d="M1.87499 7.87497C0.8415 7.87497 0 8.71647 0 9.74996V15.75C0 16.7835 0.8415 17.625 1.87499 17.625H4.12499C4.54725 17.625 4.93573 17.4825 5.24999 17.2454V7.87497H1.87499Z" fill="#BBBBBB"/>
<path d="M18 10.6875C18 10.2368 17.8215 9.81674 17.5117 9.50698C17.862 9.12374 18.0405 8.60996 17.9917 8.07524C17.904 7.12198 17.0452 6.37498 16.0357 6.37498H11.403C11.6325 5.67821 12 4.40099 12 3.37499C12 1.74824 10.6177 0.375 9.74998 0.375C8.97074 0.375 8.41422 0.81375 8.39024 0.83175C8.30175 0.903012 8.25 1.01101 8.25 1.12499V3.66823L6.09 8.34749L6 8.39323V16.4317C6.61049 16.7197 7.38298 16.875 7.87499 16.875H14.7593C15.576 16.875 16.2908 16.3245 16.4587 15.5647C16.545 15.174 16.4947 14.7802 16.323 14.4382C16.8772 14.1592 17.25 13.5885 17.25 12.9375C17.25 12.672 17.1893 12.4177 17.0738 12.1875C17.628 11.9085 18 11.3377 18 10.6875Z" fill="#BBBBBB"/>
</svg>
