<svg width="25" height="25" viewBox="0 0 25 25" fill="none" xmlns="http://www.w3.org/2000/svg">
<g clip-path="url(#clip0)">
<path d="M24.786 0.215353C24.5788 0.0081264 24.268 -0.0555942 23.9961 0.0531947L0.460913 9.46714C0.191627 9.57486 0.0113046 9.8313 0.000953044 10.1212C-0.00934967 10.411 0.152369 10.6796 0.413306 10.8062L9.69395 15.3072L14.195 24.5879C14.3178 24.841 14.5741 25.0007 14.8539 25.0007C14.8625 25.0007 14.8713 25.0006 14.88 25.0002C15.1698 24.9899 15.4264 24.8096 15.534 24.5403L24.9481 1.00529C25.0569 0.733223 24.9931 0.42253 24.786 0.215353ZM2.54411 10.2116L21.227 2.73849L10.0928 13.8726L2.54411 10.2116ZM14.7896 22.4571L11.1286 14.9083L22.2628 3.77423L14.7896 22.4571Z" fill="#60A0CF"/>
</g>
<defs>
<clipPath id="clip0">
<rect width="25" height="25" fill="white"/>
</clipPath>
</defs>
</svg>
