<svg width="20" height="24" viewBox="0 0 20 24" fill="none" xmlns="http://www.w3.org/2000/svg">
<path d="M19.9287 20.243L18.2117 17.381C17.4187 16.06 16.9997 14.547 16.9997 13.007V10.5C16.9997 7.335 14.8877 4.65802 11.9997 3.795V2.00002C11.9997 0.897 11.1027 0 9.99964 0C8.89662 0 7.99962 0.897 7.99962 2.00002V3.795C5.11166 4.65802 2.99966 7.335 2.99966 10.5V13.007C2.99966 14.547 2.58064 16.059 1.78864 17.38L0.0716551 20.242C-0.0213449 20.397 -0.0233604 20.589 0.0656552 20.746C0.154671 20.903 0.319671 21 0.499671 21H19.4997C19.6797 21 19.8456 20.9031 19.9347 20.7471C20.0237 20.591 20.0207 20.397 19.9287 20.243Z" fill="#333333"/>
<path d="M6.85071 22C7.41471 23.178 8.60871 24 9.99968 24C11.3906 24 12.5847 23.178 13.1487 22H6.85071Z" fill="#333333"/>
</svg>
