<svg width="18" height="18" viewBox="0 0 18 18" fill="none" xmlns="http://www.w3.org/2000/svg">
<g clip-path="url(#clip0)">
<path d="M6.63933 6.4634C5.40369 5.22777 3.40031 5.22777 2.16467 6.4634L11.5366 15.8353C12.7722 14.5997 12.7722 12.5963 11.5366 11.3607L6.63933 6.4634Z" fill="#BBBBBB"/>
<path d="M11.2383 3.35602L7.52942 5.86196L12.138 10.4706L14.6439 6.76171L11.2383 3.35602Z" fill="#BBBBBB"/>
<path d="M12.3569 0C11.5332 0.823746 11.5332 2.15933 12.3569 2.98311L15.0169 5.64303C15.8406 6.46678 17.1762 6.46678 18 5.64303L12.3569 0Z" fill="#BBBBBB"/>
<path d="M-0.00146484 17.2526L5.72966 11.5215L6.47533 12.2672L0.7442 17.9983L-0.00146484 17.2526Z" fill="#BBBBBB"/>
</g>
<defs>
<clipPath id="clip0">
<rect width="18" height="18" fill="white"/>
</clipPath>
</defs>
</svg>
