<svg width="21" height="24" viewBox="0 0 21 24" fill="none" xmlns="http://www.w3.org/2000/svg">
<path d="M10.163 11.5609C8.5747 11.5609 7.19957 10.9913 6.07567 9.86737C4.95213 8.74365 4.38231 7.36871 4.38231 5.78027C4.38231 4.19238 4.95195 2.81726 6.07585 1.69318C7.19975 0.569641 8.57488 0 10.163 0C11.7514 0 13.1263 0.569641 14.2501 1.69336C15.3738 2.81708 15.9436 4.1922 15.9436 5.78027C15.9436 7.36871 15.3738 8.74383 14.2501 9.86755C13.126 10.9911 11.7508 11.5609 10.163 11.5609ZM13.2554 2.6878C12.3932 1.82556 11.3817 1.40643 10.163 1.40643C8.94439 1.40643 7.93273 1.82556 7.0703 2.6878C6.20805 3.55023 5.78874 4.56189 5.78874 5.78027C5.78874 6.99902 6.20805 8.0105 7.0703 8.87292C7.93273 9.73535 8.94439 10.1545 10.163 10.1545C11.3813 10.1545 12.3928 9.73517 13.2554 8.87292C14.1179 8.01068 14.5372 6.99902 14.5372 5.78027C14.5372 4.56189 14.1179 3.55023 13.2554 2.6878Z" fill="#60A0CF"/>
<path d="M0.0484943 18.4549C0.080904 17.9872 0.146456 17.4771 0.242952 16.9384C0.340364 16.3957 0.465792 15.8826 0.615938 15.4137C0.771214 14.929 0.981968 14.4504 1.24289 13.9917C1.51334 13.5156 1.83121 13.1011 2.1879 12.7599C2.56089 12.4031 3.01755 12.1161 3.54563 11.9069C4.07188 11.6987 4.65507 11.5932 5.27891 11.5932C5.5239 11.5932 5.76084 11.6937 6.21842 11.9916C6.50004 12.1753 6.82945 12.3877 7.19713 12.6226C7.51152 12.8229 7.93742 13.0106 8.46348 13.1805C8.97673 13.3466 9.49785 13.4308 10.0124 13.4308C10.5265 13.4308 11.0477 13.3466 11.5613 13.1805C12.0868 13.0108 12.5129 12.8231 12.8267 12.6228C13.1909 12.3901 13.5205 12.1777 13.8063 11.9915C14.2635 11.6935 14.5005 11.593 14.7455 11.593C15.3695 11.593 15.9525 11.6987 16.4786 11.907C17.0063 12.116 17.4631 12.4029 17.8365 12.7601C18.1932 13.1014 18.511 13.5158 18.7813 13.9917C19.0419 14.4504 19.2528 14.9288 19.4081 15.4139C19.558 15.8828 19.6835 16.3957 19.7809 16.9384C19.8776 17.4764 19.9429 17.9867 19.9753 18.4554C20.0072 18.9138 20.0233 19.3907 20.0233 19.8727C20.0233 21.1255 19.6251 22.1397 18.8397 22.8877C18.0641 23.6258 17.038 24.0001 15.7897 24.0001H4.23356C2.98569 24.0001 1.95957 23.6258 1.18375 22.8877C0.398226 22.1403 -2.86102e-05 21.1257 -2.86102e-05 19.8725C0.000154495 19.3889 0.0164509 18.9119 0.0484943 18.4549ZM2.15348 21.8687C2.66599 22.3565 3.34641 22.5936 4.23374 22.5936H15.7897C16.6772 22.5936 17.3577 22.3565 17.87 21.8689C18.3726 21.3904 18.6169 20.7373 18.6169 19.8727C18.6169 19.423 18.602 18.9789 18.5724 18.5527C18.5435 18.1345 18.4843 17.675 18.3966 17.1869C18.31 16.7048 18.1998 16.2523 18.0687 15.8427C17.9429 15.45 17.7713 15.061 17.5585 14.6864C17.3555 14.3293 17.1218 14.023 16.864 13.7762C16.6229 13.5453 16.3189 13.3563 15.9607 13.2146C15.6295 13.0835 15.2573 13.0117 14.8531 13.0009C14.8039 13.0271 14.7162 13.0771 14.5741 13.1697C14.285 13.3582 13.9517 13.5731 13.5833 13.8084C13.168 14.0732 12.633 14.3123 11.9938 14.5187C11.3403 14.73 10.6738 14.8373 10.0122 14.8373C9.35063 14.8373 8.68394 14.73 8.03081 14.5189C7.39103 14.3121 6.85618 14.0732 6.44035 13.808C6.06333 13.5671 5.73942 13.3583 5.4503 13.1697C5.30821 13.0773 5.2205 13.0271 5.17124 13.0009C4.76695 13.0117 4.39469 13.0835 4.06327 13.2146C3.7053 13.3563 3.40134 13.5455 3.16019 13.7762C2.90238 14.0228 2.66874 14.3292 2.46567 14.6866C2.25272 15.061 2.08097 15.4501 1.95536 15.8425C1.82407 16.2527 1.71366 16.705 1.62723 17.1867C1.53971 17.6758 1.48038 18.1354 1.45145 18.5529V18.5532C1.4216 18.9778 1.40659 19.4217 1.40641 19.8727C1.40659 20.7375 1.65085 21.3904 2.15348 21.8687Z" fill="#60A0CF"/>
</svg>
