<svg width="16" height="18" viewBox="0 0 16 18" fill="none" xmlns="http://www.w3.org/2000/svg">
<path d="M15.4716 14.6364C15.4716 13.3718 14.4465 12.3465 13.1818 12.3465C11.9172 12.3465 10.8921 13.3718 10.8921 14.6364C10.8921 15.9009 11.9172 16.9261 13.1818 16.9261C14.4465 16.9261 15.4716 15.9009 15.4716 14.6364Z" fill="#555555"/>
<path d="M13.1819 11.8182C11.6276 11.8182 10.3638 13.0822 10.3638 14.6364C10.3638 16.1906 11.6276 17.4546 13.1819 17.4546C14.7362 17.4546 16.0001 16.1906 16.0001 14.6364C16.0001 13.0822 14.7362 11.8182 13.1819 11.8182ZM13.1819 16.3978C12.2104 16.3978 11.4206 15.6072 11.4206 14.6364C11.4206 13.6655 12.2104 12.875 13.1819 12.875C14.1535 12.875 14.9432 13.6655 14.9432 14.6364C14.9432 15.6072 14.1535 16.3978 13.1819 16.3978Z" fill="#555555"/>
<path d="M15.4716 3.36357C15.4716 2.09905 14.4465 1.07384 13.1818 1.07384C11.9172 1.07384 10.8921 2.09905 10.8921 3.36357C10.8921 4.62823 11.9172 5.65344 13.1818 5.65344C14.4465 5.65344 15.4716 4.62823 15.4716 3.36357Z" fill="#555555"/>
<path d="M13.1819 0.545456C11.6276 0.545456 10.3638 1.80946 10.3638 3.36361C10.3638 4.91788 11.6276 6.18188 13.1819 6.18188C14.7362 6.18188 16.0001 4.91788 16.0001 3.36361C16.0001 1.80946 14.7362 0.545456 13.1819 0.545456ZM13.1819 5.12506C12.2104 5.12506 11.4206 4.33451 11.4206 3.36361C11.4206 2.39283 12.2104 1.60228 13.1819 1.60228C14.1535 1.60228 14.9432 2.39283 14.9432 3.36361C14.9432 4.33451 14.1535 5.12506 13.1819 5.12506Z" fill="#555555"/>
<path d="M5.60793 8.99993C5.60793 7.73528 4.58271 6.7102 3.31806 6.7102C2.05354 6.7102 1.02832 7.73528 1.02832 8.99993C1.02832 10.2646 2.05354 11.2897 3.31806 11.2897C4.58271 11.2897 5.60793 10.2646 5.60793 8.99993Z" fill="#555555"/>
<path d="M3.31815 6.18182C1.76401 6.18182 0.5 7.44569 0.5 8.99997C0.5 10.5542 1.76401 11.8181 3.31815 11.8181C4.87242 11.8181 6.13643 10.5542 6.13643 8.99997C6.13643 7.44569 4.87242 6.18182 3.31815 6.18182ZM3.31815 10.7613C2.3466 10.7613 1.55682 9.97087 1.55682 8.99997C1.55682 8.02906 2.3466 7.23864 3.31815 7.23864C4.28983 7.23864 5.07961 8.02906 5.07961 8.99997C5.07961 9.97087 4.28983 10.7613 3.31815 10.7613Z" fill="#555555"/>
<path d="M4.98162 9.33805C4.73638 9.33805 4.49823 9.46563 4.36858 9.69385C4.17623 10.0313 4.29466 10.4618 4.63214 10.6549L11.1695 14.3819C11.507 14.5757 11.9375 14.4573 12.1306 14.1185C12.323 13.781 12.2046 13.3505 11.8671 13.1574L5.32955 9.43042C5.21964 9.36772 5.09992 9.33805 4.98162 9.33805Z" fill="#555555"/>
<path d="M11.5186 3.52555C11.4002 3.52555 11.2805 3.55522 11.1705 3.61792L4.63302 7.34493C4.29554 7.53728 4.17724 7.96777 4.36959 8.30603C4.56116 8.64416 4.9923 8.76323 5.33056 8.56946L11.8681 4.84245C12.2056 4.6501 12.3239 4.2196 12.1315 3.88135C12.0012 3.65313 11.7631 3.52555 11.5186 3.52555Z" fill="#555555"/>
</svg>
