<svg width="52" height="26" viewBox="0 0 52 26" fill="none" xmlns="http://www.w3.org/2000/svg">
<g clip-path="url(#clip0)">
<path d="M39.104 0H12.896C5.77374 0 0 5.8202 0 12.9998C0 20.1794 5.77374 25.9996 12.896 25.9996H39.104C46.2263 25.9996 52 20.1794 52 12.9998C52 5.8202 46.2263 0 39.104 0Z" fill="url(#paint0_linear)"/>
<path d="M33.6844 17.6126C33.5802 17.6127 33.476 17.6071 33.3724 17.5958C33.2338 17.607 33.0934 17.6126 32.9514 17.6126H32.8845C32.7993 17.6126 32.7147 17.6105 32.6307 17.6063C32.5603 17.6105 32.4894 17.6126 32.4181 17.6126H28.1841C27.2187 17.6217 26.2893 17.2438 25.6003 16.5621C24.9113 15.8803 24.5192 14.9506 24.5102 13.9775C24.5012 13.0043 24.8761 12.0674 25.5523 11.3729C26.2286 10.6784 27.1509 10.2831 28.1163 10.274C28.5211 9.33892 29.1879 8.54326 30.0348 7.98459C30.8817 7.42592 31.8719 7.12853 32.884 7.12891H32.951C34.2417 7.12873 35.4863 7.61241 36.4428 8.48589C37.3994 9.35937 37.9995 10.5602 38.1265 11.855C38.864 11.9118 39.551 12.2544 40.0432 12.811C40.5355 13.3675 40.7947 14.0947 40.7664 14.8397C40.7381 15.5848 40.4246 16.2899 39.8916 16.8069C39.3587 17.3239 38.6477 17.6127 37.9081 17.6126H33.6844Z" fill="url(#paint1_linear)"/>
<path d="M39.2634 25.9996H33.55C32.1543 26.0108 30.8114 25.4625 29.8168 24.4756C28.8221 23.4886 28.257 22.1437 28.246 20.7368C28.235 19.3299 28.7788 17.9762 29.7579 16.9735C30.737 15.9708 32.0711 15.4013 33.4668 15.3901C34.0122 13.5912 35.1603 12.039 36.7151 10.9988C38.2699 9.95854 40.1348 9.49488 41.9911 9.687C43.8474 9.87912 45.5799 10.7151 46.8925 12.0521C48.2052 13.3891 49.0165 15.1441 49.1879 17.0172C51.2346 17.1577 51.0757 18.4245 49.7624 20.2785C48.697 21.8783 47.2973 23.2237 45.6614 24.2204C45.0544 24.5519 44.428 24.846 43.7857 25.101L43.7287 25.1454C43.7287 25.1454 43.4375 25.2608 42.952 25.4067C42.7748 25.4654 42.5934 25.5216 42.4112 25.5744C42.3211 25.5997 42.2292 25.6181 42.1363 25.6294C41.2014 25.863 40.243 25.9872 39.28 25.9996H39.2634Z" fill="url(#paint2_linear)"/>
<g filter="url(#filter0_d)">
<path d="M23.2961 12.9998C23.2961 7.20983 18.6399 2.51611 12.8961 2.51611C7.15233 2.51611 2.49609 7.20983 2.49609 12.9998C2.49609 18.7898 7.15233 23.4835 12.8961 23.4835C18.6399 23.4835 23.2961 18.7898 23.2961 12.9998Z" fill="white"/>
<path d="M23 13C23 7.47715 18.5228 3 13 3C7.47715 3 3 7.47715 3 13C3 18.5228 7.47715 23 13 23C18.5228 23 23 18.5228 23 13Z" stroke="#F5F5F5" stroke-width="2"/>
</g>
<path d="M34.112 12.5803H25.792C25.5622 12.5803 25.376 12.7681 25.376 12.9997C25.376 13.2313 25.5622 13.419 25.792 13.419H34.112C34.3417 13.419 34.528 13.2313 34.528 12.9997C34.528 12.7681 34.3417 12.5803 34.112 12.5803Z" fill="white"/>
<path d="M30.2324 5.24775L25.0083 6.6597C24.7864 6.71968 24.6547 6.94968 24.7142 7.1734C24.7737 7.39713 25.0019 7.52986 25.2238 7.46988L30.4479 6.05794C30.6699 5.99795 30.8015 5.76796 30.742 5.54423C30.6825 5.32051 30.4544 5.18777 30.2324 5.24775Z" fill="white"/>
<path d="M30.448 19.7542L25.2239 18.3423C25.0019 18.2823 24.7738 18.415 24.7143 18.6387C24.6548 18.8625 24.7865 19.0925 25.0084 19.1524L30.2325 20.5644C30.4545 20.6244 30.6826 20.4916 30.7421 20.2679C30.8016 20.0442 30.6699 19.8142 30.448 19.7542Z" fill="white"/>
<path d="M22.0185 1.95271L21.4301 2.54576C21.2677 2.70953 21.2677 2.97504 21.4301 3.13881C21.5926 3.30257 21.856 3.30257 22.0185 3.13881L22.6068 2.54576C22.7692 2.382 22.7692 2.11648 22.6068 1.95271C22.4443 1.78895 22.1809 1.78895 22.0185 1.95271Z" fill="white"/>
<path d="M22.6068 23.3398L22.0185 22.7467C21.8561 22.583 21.5927 22.583 21.4302 22.7467C21.2678 22.9105 21.2678 23.176 21.4302 23.3398L22.0185 23.9328C22.181 24.0966 22.4444 24.0966 22.6068 23.9328C22.7693 23.769 22.7693 23.5035 22.6068 23.3398Z" fill="white"/>
</g>
<defs>
<filter id="filter0_d" x="-2" y="-2" width="30" height="30" filterUnits="userSpaceOnUse" color-interpolation-filters="sRGB">
<feFlood flood-opacity="0" result="BackgroundImageFix"/>
<feColorMatrix in="SourceAlpha" type="matrix" values="0 0 0 0 0 0 0 0 0 0 0 0 0 0 0 0 0 0 127 0"/>
<feOffset/>
<feGaussianBlur stdDeviation="2"/>
<feColorMatrix type="matrix" values="0 0 0 0 0 0 0 0 0 0 0 0 0 0 0 0 0 0 0.102 0"/>
<feBlend mode="normal" in2="BackgroundImageFix" result="effect1_dropShadow"/>
<feBlend mode="normal" in="SourceGraphic" in2="effect1_dropShadow" result="shape"/>
</filter>
<linearGradient id="paint0_linear" x1="45.344" y1="1.01398" x2="38.5822" y2="29.895" gradientUnits="userSpaceOnUse">
<stop stop-color="#FFE991"/>
<stop offset="1" stop-color="#FFC400"/>
</linearGradient>
<linearGradient id="paint1_linear" x1="23.6808" y1="11.0604" x2="32.3814" y2="21.4204" gradientUnits="userSpaceOnUse">
<stop stop-color="white"/>
<stop offset="1" stop-color="#FFF578" stop-opacity="0"/>
</linearGradient>
<linearGradient id="paint2_linear" x1="28.2458" y1="20.161" x2="49.2253" y2="25.4809" gradientUnits="userSpaceOnUse">
<stop stop-color="#FFEA85"/>
<stop offset="0.477" stop-color="white" stop-opacity="0.537"/>
<stop offset="1" stop-color="#FFEF6A" stop-opacity="0"/>
</linearGradient>
<clipPath id="clip0">
<rect width="52" height="26" fill="white"/>
</clipPath>
</defs>
</svg>
